<?xml version="1.0" encoding="UTF-8" standalone="no"?>
<!DOCTYPE svg PUBLIC "-//W3C//DTD SVG 1.1//EN"
 "http://www.w3.org/Graphics/SVG/1.1/DTD/svg11.dtd">
<!-- Generated by graphviz version 2.38.0 (20140413.2041)
 -->
<!-- Title: g Pages: 1 -->
<svg width="298pt" height="150pt"
 viewBox="0.00 0.00 298.00 150.00" xmlns="http://www.w3.org/2000/svg" xmlns:xlink="http://www.w3.org/1999/xlink">
<g id="graph0" class="graph" transform="scale(1 1) rotate(0) translate(4 146)">
<title>g</title>
<polygon fill="white" stroke="none" points="-4,4 -4,-146 294,-146 294,4 -4,4"/>
<!-- N0 -->
<g id="node1" class="node"><title>N0</title>
<path fill="#ffffff" stroke="#2e3436" stroke-width="1.5" d="M12,-5C12,-5 68,-5 68,-5 74,-5 80,-11 80,-17 80,-17 80,-36 80,-36 80,-42 74,-48 68,-48 68,-48 12,-48 12,-48 6,-48 0,-42 0,-36 0,-36 0,-17 0,-17 0,-11 6,-5 12,-5"/>
<text text-anchor="middle" x="40" y="-37.6" font-family="FreeSans" font-size="8.00" fill="#1c2021">Person</text>
<polyline fill="none" stroke="#2e3436" stroke-width="1.5" points="0,-31 80,-31 "/>
<text text-anchor="start" x="8" y="-20.6" font-family="FreeSans" font-size="8.00" fill="#1c2021">name = &#39;D&#39;</text>
<text text-anchor="start" x="8" y="-11.6" font-family="FreeSans" font-size="8.00" fill="#1c2021">eyes = &#39;brown&#39;</text>
</g>
<!-- N1 -->
<g id="node2" class="node"><title>N1</title>
<path fill="#ffffff" stroke="#2e3436" stroke-width="1.5" d="M121,-98.5C121,-98.5 173,-98.5 173,-98.5 179,-98.5 185,-104.5 185,-110.5 185,-110.5 185,-129.5 185,-129.5 185,-135.5 179,-141.5 173,-141.5 173,-141.5 121,-141.5 121,-141.5 115,-141.5 109,-135.5 109,-129.5 109,-129.5 109,-110.5 109,-110.5 109,-104.5 115,-98.5 121,-98.5"/>
<text text-anchor="middle" x="147" y="-131.1" font-family="FreeSans" font-size="8.00" fill="#1c2021">Person</text>
<polyline fill="none" stroke="#2e3436" stroke-width="1.5" points="109,-124.5 185,-124.5 "/>
<text text-anchor="start" x="117" y="-114.1" font-family="FreeSans" font-size="8.00" fill="#1c2021">name = &#39;A&#39;</text>
<text text-anchor="start" x="117" y="-105.1" font-family="FreeSans" font-size="8.00" fill="#1c2021">property = 13</text>
</g>
<!-- N1&#45;&gt;N0 -->
<g id="edge3" class="edge"><title>N1&#45;&gt;N0</title>
<path fill="none" stroke="#2e3436" stroke-width="2" d="M122.987,-98.4656C107.402,-85.1384 86.9624,-67.6595 70.2681,-53.3835"/>
<polygon fill="#2e3436" stroke="#2e3436" stroke-width="2" points="64.303,-48.2824 72.1965,-50.5918 67.478,-50.3396 70.328,-52.7768 70.003,-53.1568 69.6781,-53.5368 66.828,-51.0996 67.8096,-55.7219 64.303,-48.2824 64.303,-48.2824"/>
<text text-anchor="middle" x="115.5" y="-73.6" font-family="FreeSans" font-size="8.00" fill="#2e3436">KNOWS</text>
</g>
<!-- N2 -->
<g id="node3" class="node"><title>N2</title>
<path fill="#ffffff" stroke="#2e3436" stroke-width="1.5" d="M121,-0.5C121,-0.5 173,-0.5 173,-0.5 179,-0.5 185,-6.5 185,-12.5 185,-12.5 185,-40.5 185,-40.5 185,-46.5 179,-52.5 173,-52.5 173,-52.5 121,-52.5 121,-52.5 115,-52.5 109,-46.5 109,-40.5 109,-40.5 109,-12.5 109,-12.5 109,-6.5 115,-0.5 121,-0.5"/>
<text text-anchor="middle" x="147" y="-42.1" font-family="FreeSans" font-size="8.00" fill="#1c2021">Person</text>
<polyline fill="none" stroke="#2e3436" stroke-width="1.5" points="109,-35.5 185,-35.5 "/>
<text text-anchor="start" x="117" y="-25.1" font-family="FreeSans" font-size="8.00" fill="#1c2021">name = &#39;B&#39;</text>
<text text-anchor="start" x="117" y="-16.1" font-family="FreeSans" font-size="8.00" fill="#1c2021">property = 33</text>
<text text-anchor="start" x="117" y="-7.1" font-family="FreeSans" font-size="8.00" fill="#1c2021">eyes = &#39;blue&#39;</text>
</g>
<!-- N1&#45;&gt;N2 -->
<g id="edge1" class="edge"><title>N1&#45;&gt;N2</title>
<path fill="none" stroke="#2e3436" stroke-width="2" d="M147,-98.2372C147,-87.0591 147,-73.0101 147,-60.3841"/>
<polygon fill="#2e3436" stroke="#2e3436" stroke-width="2" points="147,-52.745 150.375,-60.2449 147.5,-56.495 147.5,-60.245 147,-60.245 146.5,-60.245 146.5,-56.495 143.625,-60.245 147,-52.745 147,-52.745"/>
<text text-anchor="middle" x="162.5" y="-73.6" font-family="FreeSans" font-size="8.00" fill="#2e3436">KNOWS</text>
</g>
<!-- N3 -->
<g id="node4" class="node"><title>N3</title>
<path fill="#ffffff" stroke="#2e3436" stroke-width="1.5" d="M226,-0.5C226,-0.5 278,-0.5 278,-0.5 284,-0.5 290,-6.5 290,-12.5 290,-12.5 290,-40.5 290,-40.5 290,-46.5 284,-52.5 278,-52.5 278,-52.5 226,-52.5 226,-52.5 220,-52.5 214,-46.5 214,-40.5 214,-40.5 214,-12.5 214,-12.5 214,-6.5 220,-0.5 226,-0.5"/>
<text text-anchor="middle" x="252" y="-42.1" font-family="FreeSans" font-size="8.00" fill="#1c2021">Person</text>
<polyline fill="none" stroke="#2e3436" stroke-width="1.5" points="214,-35.5 290,-35.5 "/>
<text text-anchor="start" x="222" y="-25.1" font-family="FreeSans" font-size="8.00" fill="#1c2021">name = &#39;C&#39;</text>
<text text-anchor="start" x="222" y="-16.1" font-family="FreeSans" font-size="8.00" fill="#1c2021">property = 44</text>
<text text-anchor="start" x="222" y="-7.1" font-family="FreeSans" font-size="8.00" fill="#1c2021">eyes = &#39;blue&#39;</text>
</g>
<!-- N1&#45;&gt;N3 -->
<g id="edge2" class="edge"><title>N1&#45;&gt;N3</title>
<path fill="none" stroke="#2e3436" stroke-width="2" d="M170.564,-98.4656C184.336,-86.4647 201.97,-71.0973 217.306,-57.7335"/>
<polygon fill="#2e3436" stroke="#2e3436" stroke-width="2" points="223.277,-52.5302 219.84,-60.002 220.778,-55.3708 217.951,-57.8345 217.622,-57.4576 217.294,-57.0806 220.121,-54.6169 215.405,-54.9131 223.277,-52.5302 223.277,-52.5302"/>
<text text-anchor="middle" x="214.5" y="-73.6" font-family="FreeSans" font-size="8.00" fill="#2e3436">KNOWS</text>
</g>
</g>
</svg>
