<?xml version="1.0" encoding="UTF-8" standalone="no"?>
<!DOCTYPE svg PUBLIC "-//W3C//DTD SVG 1.1//EN"
 "http://www.w3.org/Graphics/SVG/1.1/DTD/svg11.dtd">
<!-- Generated by graphviz version 2.38.0 (20140413.2041)
 -->
<!-- Title: g Pages: 1 -->
<svg width="298pt" height="232pt"
 viewBox="0.00 0.00 298.00 232.00" xmlns="http://www.w3.org/2000/svg" xmlns:xlink="http://www.w3.org/1999/xlink">
<g id="graph0" class="graph" transform="scale(1 1) rotate(0) translate(4 228)">
<title>g</title>
<polygon fill="white" stroke="none" points="-4,4 -4,-228 294,-228 294,4 -4,4"/>
<!-- N0 -->
<g id="node1" class="node"><title>N0</title>
<path fill="#ffffff" stroke="#2e3436" stroke-width="1.5" d="M12,-87C12,-87 68,-87 68,-87 74,-87 80,-93 80,-99 80,-99 80,-118 80,-118 80,-124 74,-130 68,-130 68,-130 12,-130 12,-130 6,-130 0,-124 0,-118 0,-118 0,-99 0,-99 0,-93 6,-87 12,-87"/>
<text text-anchor="middle" x="40" y="-119.6" font-family="FreeSans" font-size="8.00" fill="#1c2021">Person</text>
<polyline fill="none" stroke="#2e3436" stroke-width="1.5" points="0,-113 80,-113 "/>
<text text-anchor="start" x="8" y="-102.6" font-family="FreeSans" font-size="8.00" fill="#1c2021">name = &#39;D&#39;</text>
<text text-anchor="start" x="8" y="-93.6" font-family="FreeSans" font-size="8.00" fill="#1c2021">eyes = &#39;brown&#39;</text>
</g>
<!-- N1 -->
<g id="node2" class="node"><title>N1</title>
<path fill="#ffffff" stroke="#2e3436" stroke-width="1.5" d="M121,-180.5C121,-180.5 173,-180.5 173,-180.5 179,-180.5 185,-186.5 185,-192.5 185,-192.5 185,-211.5 185,-211.5 185,-217.5 179,-223.5 173,-223.5 173,-223.5 121,-223.5 121,-223.5 115,-223.5 109,-217.5 109,-211.5 109,-211.5 109,-192.5 109,-192.5 109,-186.5 115,-180.5 121,-180.5"/>
<text text-anchor="middle" x="147" y="-213.1" font-family="FreeSans" font-size="8.00" fill="#1c2021">Person</text>
<polyline fill="none" stroke="#2e3436" stroke-width="1.5" points="109,-206.5 185,-206.5 "/>
<text text-anchor="start" x="117" y="-196.1" font-family="FreeSans" font-size="8.00" fill="#1c2021">name = &#39;A&#39;</text>
<text text-anchor="start" x="117" y="-187.1" font-family="FreeSans" font-size="8.00" fill="#1c2021">property = 13</text>
</g>
<!-- N1&#45;&gt;N0 -->
<g id="edge3" class="edge"><title>N1&#45;&gt;N0</title>
<path fill="none" stroke="#2e3436" stroke-width="2" d="M122.987,-180.466C107.402,-167.138 86.9624,-149.659 70.2681,-135.383"/>
<polygon fill="#2e3436" stroke="#2e3436" stroke-width="2" points="64.303,-130.282 72.1965,-132.592 67.478,-132.34 70.328,-134.777 70.003,-135.157 69.6781,-135.537 66.828,-133.1 67.8096,-137.722 64.303,-130.282 64.303,-130.282"/>
<text text-anchor="middle" x="115.5" y="-155.6" font-family="FreeSans" font-size="8.00" fill="#2e3436">KNOWS</text>
</g>
<!-- N2 -->
<g id="node3" class="node"><title>N2</title>
<path fill="#ffffff" stroke="#2e3436" stroke-width="1.5" d="M121,-82.5C121,-82.5 173,-82.5 173,-82.5 179,-82.5 185,-88.5 185,-94.5 185,-94.5 185,-122.5 185,-122.5 185,-128.5 179,-134.5 173,-134.5 173,-134.5 121,-134.5 121,-134.5 115,-134.5 109,-128.5 109,-122.5 109,-122.5 109,-94.5 109,-94.5 109,-88.5 115,-82.5 121,-82.5"/>
<text text-anchor="middle" x="147" y="-124.1" font-family="FreeSans" font-size="8.00" fill="#1c2021">Person</text>
<polyline fill="none" stroke="#2e3436" stroke-width="1.5" points="109,-117.5 185,-117.5 "/>
<text text-anchor="start" x="117" y="-107.1" font-family="FreeSans" font-size="8.00" fill="#1c2021">name = &#39;B&#39;</text>
<text text-anchor="start" x="117" y="-98.1" font-family="FreeSans" font-size="8.00" fill="#1c2021">property = 33</text>
<text text-anchor="start" x="117" y="-89.1" font-family="FreeSans" font-size="8.00" fill="#1c2021">eyes = &#39;blue&#39;</text>
</g>
<!-- N1&#45;&gt;N2 -->
<g id="edge1" class="edge"><title>N1&#45;&gt;N2</title>
<path fill="none" stroke="#2e3436" stroke-width="2" d="M147,-180.237C147,-169.059 147,-155.01 147,-142.384"/>
<polygon fill="#2e3436" stroke="#2e3436" stroke-width="2" points="147,-134.745 150.375,-142.245 147.5,-138.495 147.5,-142.245 147,-142.245 146.5,-142.245 146.5,-138.495 143.625,-142.245 147,-134.745 147,-134.745"/>
<text text-anchor="middle" x="162.5" y="-155.6" font-family="FreeSans" font-size="8.00" fill="#2e3436">KNOWS</text>
</g>
<!-- N3 -->
<g id="node4" class="node"><title>N3</title>
<path fill="#ffffff" stroke="#2e3436" stroke-width="1.5" d="M226,-82.5C226,-82.5 278,-82.5 278,-82.5 284,-82.5 290,-88.5 290,-94.5 290,-94.5 290,-122.5 290,-122.5 290,-128.5 284,-134.5 278,-134.5 278,-134.5 226,-134.5 226,-134.5 220,-134.5 214,-128.5 214,-122.5 214,-122.5 214,-94.5 214,-94.5 214,-88.5 220,-82.5 226,-82.5"/>
<text text-anchor="middle" x="252" y="-124.1" font-family="FreeSans" font-size="8.00" fill="#1c2021">Person</text>
<polyline fill="none" stroke="#2e3436" stroke-width="1.5" points="214,-117.5 290,-117.5 "/>
<text text-anchor="start" x="222" y="-107.1" font-family="FreeSans" font-size="8.00" fill="#1c2021">name = &#39;C&#39;</text>
<text text-anchor="start" x="222" y="-98.1" font-family="FreeSans" font-size="8.00" fill="#1c2021">property = 44</text>
<text text-anchor="start" x="222" y="-89.1" font-family="FreeSans" font-size="8.00" fill="#1c2021">eyes = &#39;blue&#39;</text>
</g>
<!-- N1&#45;&gt;N3 -->
<g id="edge2" class="edge"><title>N1&#45;&gt;N3</title>
<path fill="none" stroke="#2e3436" stroke-width="2" d="M170.564,-180.466C184.336,-168.465 201.97,-153.097 217.306,-139.734"/>
<polygon fill="#2e3436" stroke="#2e3436" stroke-width="2" points="223.277,-134.53 219.84,-142.002 220.778,-137.371 217.951,-139.835 217.622,-139.458 217.294,-139.081 220.121,-136.617 215.405,-136.913 223.277,-134.53 223.277,-134.53"/>
<text text-anchor="middle" x="215.5" y="-155.6" font-family="FreeSans" font-size="8.00" fill="#2e3436">KNOWS</text>
</g>
<!-- N4 -->
<g id="node5" class="node"><title>N4</title>
<path fill="#ffffff" stroke="#2e3436" stroke-width="1.5" d="M184,-0.5C184,-0.5 224,-0.5 224,-0.5 230,-0.5 236,-6.5 236,-12.5 236,-12.5 236,-24.5 236,-24.5 236,-30.5 230,-36.5 224,-36.5 224,-36.5 184,-36.5 184,-36.5 178,-36.5 172,-30.5 172,-24.5 172,-24.5 172,-12.5 172,-12.5 172,-6.5 178,-0.5 184,-0.5"/>
<text text-anchor="middle" x="204" y="-25.6" font-family="FreeSans" font-size="8.00" fill="#1c2021">Person</text>
<polyline fill="none" stroke="#2e3436" stroke-width="1.5" points="172,-18.5 236,-18.5 "/>
<text text-anchor="start" x="180" y="-7.6" font-family="FreeSans" font-size="8.00" fill="#1c2021">name = &#39;D&#39;</text>
</g>
<!-- N2&#45;&gt;N4 -->
<g id="edge4" class="edge"><title>N2&#45;&gt;N4</title>
<path fill="none" stroke="#2e3436" stroke-width="2" d="M163.487,-82.0468C171.476,-69.7118 181.008,-54.9965 188.818,-42.9388"/>
<polygon fill="#2e3436" stroke="#2e3436" stroke-width="2" points="192.959,-36.5455 191.714,-44.6752 191.34,-39.9648 189.301,-43.1122 188.882,-42.8404 188.462,-42.5686 190.501,-39.4211 186.049,-41.0056 192.959,-36.5455 192.959,-36.5455"/>
<text text-anchor="middle" x="196.5" y="-57.6" font-family="FreeSans" font-size="8.00" fill="#2e3436">KNOWS</text>
</g>
<!-- N3&#45;&gt;N4 -->
<g id="edge5" class="edge"><title>N3&#45;&gt;N4</title>
<path fill="none" stroke="#2e3436" stroke-width="2" d="M238.116,-82.0468C231.451,-69.826 223.51,-55.2688 216.968,-43.2744"/>
<polygon fill="#2e3436" stroke="#2e3436" stroke-width="2" points="213.298,-36.5455 219.852,-41.5136 215.532,-39.5982 217.328,-42.8903 216.889,-43.1298 216.45,-43.3692 214.654,-40.0771 213.926,-44.7459 213.298,-36.5455 213.298,-36.5455"/>
<text text-anchor="middle" x="243.5" y="-57.6" font-family="FreeSans" font-size="8.00" fill="#2e3436">KNOWS</text>
</g>
</g>
</svg>
